<svg width="800" height="800" viewBox="0 0 800 800" fill="none" xmlns="http://www.w3.org/2000/svg">
<path fill-rule="evenodd" clip-rule="evenodd" d="M124.32 40C113.159 40.0046 102.122 42.3339 91.9114 46.8395C81.7007 51.3451 72.5405 57.9282 65.0143 66.1693C57.4882 74.4104 51.7612 84.1289 48.1982 94.7054C44.6353 105.282 43.3145 116.485 44.32 127.6C50.24 192.56 60 313.92 60 400C60 486.12 50.2 607.48 44.36 672.4C43.3548 683.512 44.6745 694.711 48.235 705.285C51.7956 715.859 57.519 725.575 65.0408 733.816C72.5627 742.056 81.718 748.64 91.924 753.148C102.13 757.656 113.163 759.99 124.32 760H675.68C686.841 759.995 697.878 757.666 708.089 753.16C718.299 748.655 727.46 742.072 734.986 733.831C742.512 725.59 748.239 715.871 751.802 705.295C755.365 694.718 756.686 683.515 755.68 672.4C749.76 607.48 740 486.12 740 400C740 313.88 749.76 192.52 755.64 127.6C756.645 116.488 755.325 105.289 751.765 94.7149C748.204 84.1411 742.481 74.4245 734.959 66.184C727.437 57.9435 718.282 51.3596 708.076 46.8516C697.87 42.3436 686.837 40.0102 675.68 40H124.32ZM124 120.4V120.28C124 120.28 124 120.16 124.08 120.08L124.24 120H675.76L675.88 120.08L675.96 120.24V120.44C674.04 141.64 671.68 169.24 669.36 200H130.64C128.32 169.28 125.96 141.6 124.04 120.4H124ZM136 280C138.36 321.48 140 363.56 140 400C140 490.16 129.88 614.8 124 679.6V679.72L124.12 679.92L124.24 680H675.76L675.88 679.92L675.96 679.72V679.56C670.12 614.76 660 490.16 660 400C660 363.56 661.64 321.48 664 280H136ZM280 480C280 469.391 284.214 459.217 291.716 451.716C299.217 444.214 309.391 440 320 440H480C490.609 440 500.783 444.214 508.284 451.716C515.786 459.217 520 469.391 520 480C520 490.609 515.786 500.783 508.284 508.284C500.783 515.786 490.609 520 480 520H320C309.391 520 299.217 515.786 291.716 508.284C284.214 500.783 280 490.609 280 480Z" fill="white"/>
</svg>
